#N canvas 505 141 588 604 10;
#X declare -lib mrpeach;
#X obj 16 10 import mrpeach;
#X obj 439 108 udpsend;
#X msg 452 36 disconnect;
#X obj 487 82 packOSC;
#X msg 492 61 send /test 9;
#X msg 439 11 connect localhost 9000;
#X obj 22 87 unpackOSC;
#X obj 22 66 spigot;
#X obj 70 66 tgl 15 0 empty empty empty 17 7 0 10 -262144 -1 -1 1 1
;
#X obj 29 170 routeOSC /Accelerometer /AudioInput;
#X obj 133 394 routeOSC /Rate /Channels /Frames /TimeID /Data /Timestamps
;
#X obj 133 349 spigot;
#X obj 165 329 tgl 15 0 empty empty empty 17 7 0 10 -262144 -1 -1 0
1;
#X floatatom 150 455 15 0 0 0 - - -;
#X floatatom 152 431 5 0 0 0 - - -;
#X floatatom 196 433 5 0 0 0 - - -;
#X obj 30 228 routeOSC /Rate /Channels /Frames /TimeID /Data /Timestamps
;
#X obj 29 202 spigot;
#X obj 79 203 tgl 15 0 empty empty empty 17 7 0 10 -262144 -1 -1 0
1;
#X floatatom 41 269 15 0 0 0 - - -;
#X floatatom 144 269 5 0 0 0 - - -;
#X floatatom 188 271 5 0 0 0 - - -;
#X obj 298 308 unpack;
#X floatatom 296 349 12 0 0 0 - - -;
#X obj 289 272 print ACC-DATA;
#X obj 441 467 scope~ 121 123 256 3 128 -1 1 0 0 0 0 102 255 51 135
135 135 0;
#X msg 440 447 buffsize 512;
#X obj 346 452 sig~;
#X obj 243 547 dac~;
#X obj 22 123 print;
#X obj 22 43 udpreceive 5555;
#X obj 136 74 spigot;
#X obj 184 74 tgl 15 0 empty empty empty 17 7 0 10 -262144 -1 -1 0
1;
#X obj 136 131 print;
#X connect 2 0 1 0;
#X connect 3 0 1 0;
#X connect 4 0 3 0;
#X connect 5 0 1 0;
#X connect 6 0 29 0;
#X connect 7 0 6 0;
#X connect 8 0 7 1;
#X connect 9 0 17 0;
#X connect 9 1 11 0;
#X connect 10 0 13 0;
#X connect 10 1 14 0;
#X connect 10 2 15 0;
#X connect 11 0 10 0;
#X connect 12 0 11 1;
#X connect 16 0 19 0;
#X connect 16 1 20 0;
#X connect 16 2 21 0;
#X connect 16 4 22 0;
#X connect 16 4 24 0;
#X connect 17 0 16 0;
#X connect 18 0 17 1;
#X connect 22 0 23 0;
#X connect 26 0 25 0;
#X connect 27 0 25 0;
#X connect 27 0 28 0;
#X connect 27 0 28 1;
#X connect 30 0 7 0;
#X connect 30 0 31 0;
#X connect 31 0 33 0;
#X connect 32 0 31 1;
