#N canvas 772 175 450 300 10;
#X declare -lib mrpeach;
#X obj 16 10 import mrpeach;
#X obj 144 177 unpackOSC;
#X obj 144 200 print;
#X obj 70 181 print RAW;
#X obj 272 117 udpsend;
#X msg 285 45 disconnect;
#X obj 320 91 packOSC;
#X msg 325 70 send /test 9;
#X msg 272 20 connect localhost 9000;
#X obj 70 83 udpreceive 9000;
#X obj 157 106 print RIGHT;
#X obj 70 138 spigot;
#X obj 103 116 tgl 15 0 empty empty empty 17 7 0 10 -262144 -1 -1 0
1;
#X obj 324 243 unpackOSC;
#X obj 324 266 print;
#X obj 250 247 print RAW;
#X obj 337 172 print RIGHT;
#X obj 250 204 spigot;
#X obj 283 182 tgl 15 0 empty empty empty 17 7 0 10 -262144 -1 -1 1
1;
#X obj 251 149 udpreceive 9005;
#X connect 1 0 2 0;
#X connect 5 0 4 0;
#X connect 6 0 4 0;
#X connect 7 0 6 0;
#X connect 8 0 4 0;
#X connect 9 0 11 0;
#X connect 9 1 10 0;
#X connect 11 0 3 0;
#X connect 11 0 1 0;
#X connect 12 0 11 1;
#X connect 13 0 14 0;
#X connect 17 0 15 0;
#X connect 17 0 13 0;
#X connect 18 0 17 1;
#X connect 19 0 17 0;
#X connect 19 1 16 0;
