#N canvas 762 234 450 300 10;
#X declare -lib mrpeach;
#X obj 66 38 import mrpeach;
#X obj 143 131 unpackOSC;
#X obj 143 154 print;
#X obj 69 81 udpreceive 9000;
#X obj 69 132 print RAW;
#X obj 272 117 udpsend;
#X msg 272 20 connect localhost 9000;
#X msg 285 45 disconnect;
#X obj 320 91 packOSC;
#X msg 325 70 send /test 9;
#X connect 1 0 2 0;
#X connect 3 0 1 0;
#X connect 3 0 4 0;
#X connect 6 0 5 0;
#X connect 7 0 5 0;
#X connect 8 0 5 0;
#X connect 9 0 8 0;
