#N canvas 798 468 450 300 10;
#X declare -lib mrpeach;
#X obj 16 10 import mrpeach;
#X obj 28 136 unpackOSC;
#X obj 272 117 udpsend;
#X msg 285 45 disconnect;
#X obj 320 91 packOSC;
#X msg 325 70 send /test 9;
#X msg 272 20 connect localhost 9000;
#X obj 28 63 udpreceive 9000;
#X obj 28 109 spigot;
#X obj 61 87 tgl 15 0 empty empty empty 17 7 0 10 -262144 -1 -1 1 1
;
#X obj 132 134 unpackOSC;
#X obj 132 91 spigot;
#X obj 165 85 tgl 15 0 empty empty empty 17 7 0 10 -262144 -1 -1 1
1;
#X obj 132 61 udpreceive 9005;
#X floatatom 13 276 15 0 0 0 - - -;
#X obj 206 171 bang;
#X obj 218 138 bng 15 250 50 0 empty empty empty 17 7 0 10 -262144
-1 -1;
#X obj 207 193 f 0;
#X obj 234 192 + 1;
#X floatatom 12 254 15 0 0 0 - - -;
#X obj 37 197 bang;
#X obj 37 228 f 0;
#X obj 64 227 + 1;
#X msg 142 181 0;
#X obj 26 163 print acc;
#X connect 3 0 2 0;
#X connect 4 0 2 0;
#X connect 5 0 4 0;
#X connect 6 0 2 0;
#X connect 7 0 8 0;
#X connect 7 0 20 0;
#X connect 8 0 1 0;
#X connect 9 0 8 1;
#X connect 11 0 10 0;
#X connect 12 0 11 1;
#X connect 13 0 11 0;
#X connect 13 0 15 0;
#X connect 15 0 17 0;
#X connect 16 0 15 0;
#X connect 17 0 14 0;
#X connect 17 0 18 0;
#X connect 18 0 17 1;
#X connect 20 0 21 0;
#X connect 21 0 19 0;
#X connect 21 0 22 0;
#X connect 22 0 21 1;
#X connect 23 0 21 0;
#X connect 23 0 17 0;
